<?xml version="1.0" encoding="UTF-8"?>
<svg version="1.1" xmlns="http://www.w3.org/2000/svg" width="392" height="392">
<path d="M0 0 C2.52073404 1.95971702 4.9275027 3.99494414 7.3125 6.1171875 C8.36050781 7.02404297 8.36050781 7.02404297 9.4296875 7.94921875 C20.35191304 18.04271511 28.44951117 33.69133864 29.48950195 48.66577148 C29.98089331 70.29678005 27.15618108 88.28414709 12.3125 105.1171875 C11.65636719 105.86742187 11.00023437 106.61765625 10.32421875 107.390625 C-1.86036811 120.4439484 -18.9249885 127.97702629 -36.6875 129.1171875 C-55.25670986 129.63863897 -73.05385251 124.41790598 -86.9375 111.7421875 C-88.8826951 109.8933288 -90.78532005 108.01116839 -92.6875 106.1171875 C-93.3578125 105.48167969 -94.028125 104.84617187 -94.71875 104.19140625 C-107.19788794 91.40028987 -111.88711965 72.46710842 -111.6875 55.1171875 C-110.51677254 35.25739251 -101.96272086 18.1422573 -87.62890625 4.5859375 C-63.04556288 -16.04709438 -26.52741937 -18.58461648 0 0 Z " fill="#6156A3" transform="translate(173.6875,206.8828125)"/>
<path d="M0 0 C20.54953069 15.18878356 31.54037808 45.00628672 35.4765625 69.38671875 C40.50165405 104.07485068 32.47853228 139.5392455 11.77734375 168.0625 C9.58874785 170.77991008 7.32277985 173.39674844 5 176 C3.86304688 177.35158203 3.86304688 177.35158203 2.703125 178.73046875 C-17.5298067 202.170254 -49.23815201 218.82530853 -80.26025391 221.17089844 C-85.50390617 221.52013084 -90.74955085 221.77831437 -96 222 C-95.22647464 218.48447644 -94.02444996 216.48637456 -91.8125 213.625 C-81.37590639 199.05234362 -78.74809239 182.3575291 -77 165 C-76.04480469 164.63648438 -75.08960938 164.27296875 -74.10546875 163.8984375 C-53.23446498 155.84006163 -36.26861359 144.62449585 -26 124 C-17.74453035 103.94446848 -15.42933051 82.36691602 -23.86181641 61.90917969 C-27.25342489 54.19472544 -31.12278084 47.11048873 -36.65234375 40.69921875 C-38 39 -38 39 -39 36 C-37.81664062 36.05800781 -36.63328125 36.11601562 -35.4140625 36.17578125 C-24.38433927 36.55498997 -16.83321318 35.94555031 -8.125 28.5625 C-0.27711178 19.09887009 0.32362716 11.95622575 0 0 Z " fill="#545BA7" transform="translate(292,97)"/>
<path d="M0 0 C1.01553955 -0.02247803 2.0310791 -0.04495605 3.07739258 -0.06811523 C10.98311974 -0.04263186 16.31323104 1.61286387 22.25 6.875 C22.9925 7.720625 23.735 8.56625 24.5 9.4375 C25.221875 10.241875 25.94375 11.04625 26.6875 11.875 C31.46718902 18.63249138 31.33380304 26.47687516 30.5 34.4375 C28.40138974 41.65086271 23.96127528 47.5586771 17.5 51.4375 C11.37100774 54.05084601 5.53538 54.89813724 -1.0625 55.3125 C-19.43235231 56.83776373 -34.5421412 63.25740635 -48.5 75.4375 C-49.11488281 75.95699219 -49.72976562 76.47648437 -50.36328125 77.01171875 C-65.1671918 90.52241412 -70.18083609 109.46280557 -73.5 128.4375 C-76.42160477 129.41998656 -79.34325025 130.38920176 -82.2890625 131.296875 C-97.65683455 136.12311746 -111.89512765 144.04798894 -122.5 156.4375 C-122.995 157.4275 -122.995 157.4275 -123.5 158.4375 C-124.16 158.4375 -124.82 158.4375 -125.5 158.4375 C-127.48721806 149.70375056 -127.85069283 141.24907609 -127.8125 132.3125 C-127.80926727 131.28487045 -127.80926727 131.28487045 -127.80596924 130.23648071 C-127.62029666 93.4384302 -112.73461471 61.16841701 -86.71142578 35.28271484 C-63.4192769 12.83172697 -32.21853111 0.46545189 0 0 Z " fill="#6B4FA0" transform="translate(193.5,55.5625)"/>
<path d="M0 0 C0.99 0.66 1.98 1.32 3 2 C3 2.66 3 3.32 3 4 C3.66 4 4.32 4 5 4 C5 4.66 5 5.32 5 6 C5.66 6 6.32 6 7 6 C9.125 7.875 9.125 7.875 11 10 C11 10.66 11 11.32 11 12 C11.66 12 12.32 12 13 12 C13 12.66 13 13.32 13 14 C13.66 14 14.32 14 15 14 C17.125 15.875 17.125 15.875 19 18 C19 18.66 19 19.32 19 20 C19.556875 20.226875 20.11375 20.45375 20.6875 20.6875 C25.43535128 23.3822264 28.70608957 27.73011611 32 32 C31.97679687 31.25234375 31.95359375 30.5046875 31.9296875 29.734375 C31.91164063 28.74953125 31.89359375 27.7646875 31.875 26.75 C31.85179687 25.77546875 31.82859375 24.8009375 31.8046875 23.796875 C32.00137219 20.9803502 32.55431084 19.39050964 34 17 C38.24180798 35.99313818 34.83571234 55.40223542 25 72 C22.86179516 75.19702743 20.54280491 78.11640681 18 81 C17.34386719 81.75023437 16.68773437 82.50046875 16.01171875 83.2734375 C3.88455206 96.26524679 -13.27666958 103.98051639 -31 105 C-36.68434387 104.93506461 -42.33984178 104.50161881 -48 104 C-48 103.67 -48 103.34 -48 103 C-45.525 102.505 -45.525 102.505 -43 102 C-43 101.34 -43 100.68 -43 100 C-43.928125 99.62875 -43.928125 99.62875 -44.875 99.25 C-47.40358627 97.76259631 -47.71839004 96.56321991 -49 94 C-49.60972656 93.70738281 -50.21945313 93.41476562 -50.84765625 93.11328125 C-53.36307855 91.81220075 -54.63752659 90.36160184 -56.4375 88.1875 C-60.15970713 83.80145975 -64.01154077 79.80522868 -68.4375 76.125 C-77.60456267 68.28474903 -77.60456267 68.28474903 -78.5625 62.75 C-78 60 -78 60 -76.5078125 58.625 C-74.5429157 56.50739101 -74.5818907 55.09405917 -74.3125 52.25 C-73.40322154 46.76214237 -70.9833894 44.50318683 -66.6796875 41.1796875 C-65.84824219 40.59574219 -65.84824219 40.59574219 -65 40 C-64.34 40.33 -63.68 40.66 -63 41 C-64.32 43.31 -65.64 45.62 -67 48 C-66.05125 47.505 -65.1025 47.01 -64.125 46.5 C-61 45 -61 45 -59 45 C-59 44.34 -59 43.68 -59 43 C-57.28665677 41.95801999 -55.5259654 40.9937434 -53.75 40.0625 C-47.6136444 36.60263993 -42.85383 32.51786961 -37.7890625 27.6484375 C-35.79684073 25.75666389 -33.84894667 24.05407487 -31.7109375 22.3515625 C-28.79101136 20.22207564 -28.79101136 20.22207564 -28 17 C-29.96822886 15.03177114 -33.34808709 15.33751619 -36 15 C-35.34 12.69 -34.68 10.38 -34 8 C-29.52580786 9.40617467 -27.27154203 11.72845797 -24 15 C-23.01 15 -22.02 15 -21 15 C-18.01085343 11.38505616 -18.01085343 11.38505616 -17 7 C-20.3 7.33 -23.6 7.66 -27 8 C-26 4 -26 4 -24.2734375 2.75 C-21.57143773 1.85861863 -19.46308866 1.87280275 -16.625 2 C-10.77751626 2.12441455 -5.72345671 -0.61875208 0 0 Z " fill="#7C6CAE" transform="translate(168,231)"/>
<path d="M0 0 C5.82978688 3.52294648 10.53488288 8.98877883 12.5625 15.5 C13.38686786 22.76311472 13.75596934 29.73080526 9.18359375 35.75390625 C3.2297269 42.16686644 -1.7431253 46.36076667 -10.75 46.875 C-18.14000709 46.67627712 -24.57069236 43.22655523 -29.9296875 38.25390625 C-34.49784599 32.94016749 -36.1365869 26.91423721 -35.82421875 19.98828125 C-34.76885869 13.19773219 -31.75908325 7.85402266 -26.4375 3.5 C-25.90769531 3.03464844 -25.37789062 2.56929688 -24.83203125 2.08984375 C-17.92210612 -3.19941663 -7.89849247 -3.43345774 0 0 Z " fill="#FCAE09" transform="translate(272.4375,80.5)"/>
<path d="M0 0 C0.89203125 0.11085937 1.7840625 0.22171875 2.703125 0.3359375 C3.37859375 0.43132812 4.0540625 0.52671875 4.75 0.625 C5.13622356 5.77464741 4.20228083 10.10475101 1.75 14.625 C1.06550781 15.223125 0.38101563 15.82125 -0.32421875 16.4375 C-2.97361099 19.44695163 -2.74867769 21.54301686 -2.8125 25.5 C-2.93334179 32.08232328 -4.17116032 36.26523604 -8.5625 41.25 C-14.69695331 46.67114478 -18.90640955 48.83496216 -27.03515625 48.8046875 C-29.43178611 48.61025192 -31.5578644 48.07051175 -33.875 47.4375 C-38.40469826 46.33194653 -40.09809118 47.46920119 -44.25 49.625 C-48.57281969 50.19515607 -52.89527575 50.43763056 -57.25 50.625 C-56.94192326 47.17258449 -56.71592438 45.15889221 -54.40234375 42.5078125 C-53.30599609 41.63769531 -53.30599609 41.63769531 -52.1875 40.75 C-51.45402344 40.15445313 -50.72054687 39.55890625 -49.96484375 38.9453125 C-49.39894531 38.50960937 -48.83304688 38.07390625 -48.25 37.625 C-47.59 37.955 -46.93 38.285 -46.25 38.625 C-47.57 40.935 -48.89 43.245 -50.25 45.625 C-49.30125 45.13 -48.3525 44.635 -47.375 44.125 C-44.25 42.625 -44.25 42.625 -42.25 42.625 C-42.25 41.965 -42.25 41.305 -42.25 40.625 C-40.53665677 39.58301999 -38.7759654 38.6187434 -37 37.6875 C-30.8636444 34.22763993 -26.10383 30.14286961 -21.0390625 25.2734375 C-19.04684073 23.38166389 -17.09894667 21.67907487 -14.9609375 19.9765625 C-12.04101136 17.84707564 -12.04101136 17.84707564 -11.25 14.625 C-13.21822886 12.65677114 -16.59808709 12.96251619 -19.25 12.625 C-18.59 10.315 -17.93 8.005 -17.25 5.625 C-12.77580786 7.03117467 -10.52154203 9.35345797 -7.25 12.625 C-6.26 12.625 -5.27 12.625 -4.25 12.625 C-1.26085343 9.01005616 -1.26085343 9.01005616 -0.25 4.625 C-3.55 4.955 -6.85 5.285 -10.25 5.625 C-9.25 1.625 -9.25 1.625 -7.515625 0.3515625 C-4.77103029 -0.52860063 -2.84836602 -0.374785 0 0 Z " fill="#F5F4F7" transform="translate(151.25,233.375)"/>
<path d="M0 0 C0.99 0.33 1.98 0.66 3 1 C2.67 1.33 2.34 1.66 2 2 C5.63 1.67 9.26 1.34 13 1 C13.33 2.32 13.66 3.64 14 5 C12.5625 7.25 12.5625 7.25 11 9 C13.97 9 16.94 9 20 9 C19.67072643 14.14607558 16.84911455 16.57735954 13.1875 19.8125 C12.61016113 20.33440918 12.03282227 20.85631836 11.43798828 21.39404297 C5.99727979 26.20669254 0.17604494 30.17673409 -6 34 C-6.99 34.66 -7.98 35.32 -9 36 C-10.5625 34.1875 -10.5625 34.1875 -12 32 C-10.87396129 28.62188388 -10.17801376 28.12715269 -7.375 26.125 C-6.65957031 25.60679687 -5.94414063 25.08859375 -5.20703125 24.5546875 C-3.79010012 23.5565661 -2.37100739 22.5615023 -0.94921875 21.5703125 C2.56507559 19.29030246 2.56507559 19.29030246 5 16 C3.906875 16.495 2.81375 16.99 1.6875 17.5 C-2 19 -2 19 -5 19 C-4.43899078 15.20893773 -2.84675862 13.4970605 -0.125 10.875 C0.57367188 10.19179687 1.27234375 9.50859375 1.9921875 8.8046875 C4 7 4 7 7 5 C2.34598561 6.27985396 -1.15163929 8.25395019 -5.0703125 10.9765625 C-7 12 -7 12 -11 12 C-11 12.66 -11 13.32 -11 14 C-9.68 14 -8.36 14 -7 14 C-7.5590888 17.24271506 -8.4132178 18.93057424 -11 21 C-11.66 21 -12.32 21 -13 21 C-13.42155993 14.88738098 -13.11426669 11.85272482 -9 7 C-3.45679012 1.72839506 -3.45679012 1.72839506 0 0 Z " fill="#F8F7F9" transform="translate(117,238)"/>
<path d="M0 0 C1.32 0.99 2.64 1.98 4 3 C3.44064577 6.90857398 2.32566703 9.40455205 0.0625 12.625 C-0.46214844 13.38039062 -0.98679688 14.13578125 -1.52734375 14.9140625 C-2.01332031 15.60242188 -2.49929687 16.29078125 -3 17 C-5.46511726 20.6976759 -5.09254973 22.3128586 -4.875 26.6875 C-4.78573894 32.86564082 -5.36060193 36.98628378 -9 42 C-9.53625 42.7425 -10.0725 43.485 -10.625 44.25 C-16.80662995 48.80488522 -23.40938965 50.74661741 -31 50 C-33.33932406 49.35466922 -35.67328146 48.68939809 -38 48 C-42.67809412 47.50233041 -45.85270955 48.59657319 -50.09765625 50.33203125 C-52.46128874 51.16197202 -54.51667947 51.2328113 -57 51 C-57 50.34 -57 49.68 -57 49 C-57.99 48.67 -58.98 48.34 -60 48 C-59.41992188 47.87882812 -58.83984375 47.75765625 -58.2421875 47.6328125 C-53.03500149 46.5157594 -48.0390392 45.17640227 -43.0625 43.25 C-41 43 -41 43 -37.75 43.9375 C-30.62035358 45.95756649 -24.51001829 45.52043908 -18 42 C-14.01791334 38.54885823 -10.67786504 35.03359512 -9 30 C-8.8986807 27.70905806 -8.81784458 25.4171775 -8.75 23.125 C-8.32903962 16.39653493 -8.32903962 16.39653493 -5.5625 13.0625 C-4.2940625 12.0415625 -4.2940625 12.0415625 -3 11 C-1.68998504 7.49895468 -1.68998504 7.49895468 -1 4 C-0.79375 3.195625 -0.5875 2.39125 -0.375 1.5625 C-0.189375 0.7890625 -0.189375 0.7890625 0 0 Z " fill="#9F9AB2" transform="translate(156,236)"/>
<path d="M0 0 C0.88300781 0.11988281 1.76601562 0.23976562 2.67578125 0.36328125 C3.33964844 0.47027344 4.00351563 0.57726562 4.6875 0.6875 C4.6875 1.0175 4.6875 1.3475 4.6875 1.6875 C3.40875 1.64625 2.13 1.605 0.8125 1.5625 C-1.33121492 1.44537127 -1.33121492 1.44537127 -3.3125 1.6875 C-5.36520463 3.52938612 -5.36520463 3.52938612 -6.3125 5.6875 C-3.6725 5.3575 -1.0325 5.0275 1.6875 4.6875 C2.1825 6.1725 2.1825 6.1725 2.6875 7.6875 C0.64675695 11.25880033 -0.87003136 13.3925209 -4.3125 15.6875 C-5.01375 14.945 -5.715 14.2025 -6.4375 13.4375 C-9.28968006 10.70932777 -11.9888063 8.77447046 -15.3125 6.6875 C-15.456875 7.47125 -15.60125 8.255 -15.75 9.0625 C-16.3125 11.6875 -16.3125 11.6875 -17.3125 13.6875 C-16.19875 13.625625 -15.085 13.56375 -13.9375 13.5 C-12.74125 13.561875 -11.545 13.62375 -10.3125 13.6875 C-9.3225 15.1725 -9.3225 15.1725 -8.3125 16.6875 C-16.46137614 26.66987327 -27.69601898 38.14964405 -40.3125 41.6875 C-37.22285251 38.2782338 -33.95057079 35.65406853 -30.1875 33 C-25.99587784 29.99866185 -22.03128479 26.8651395 -18.1875 23.4375 C-17.27742188 22.62796875 -16.36734375 21.8184375 -15.4296875 20.984375 C-12.97302567 18.68731361 -12.97302567 18.68731361 -12.3125 14.6875 C-15.6125 15.0175 -18.9125 15.3475 -22.3125 15.6875 C-21.57 14.5428125 -21.57 14.5428125 -20.8125 13.375 C-19.06881692 10.76386249 -19.06881692 10.76386249 -19.3125 7.6875 C-23.44824827 7.5890298 -27.24881321 7.91346442 -31.3125 8.6875 C-30.5625 6.75 -30.5625 6.75 -29.3125 4.6875 C-24.53146648 2.89316539 -18.97497916 3.35400865 -13.94140625 3.1640625 C-8.42628764 2.43979504 -5.76691032 -0.84581351 0 0 Z " fill="#BDB8D2" transform="translate(149.3125,232.3125)"/>
<path d="M0 0 C1.02963867 -0.02594238 2.05927734 -0.05188477 3.12011719 -0.07861328 C11.1431548 -0.09806779 16.47328776 1.47064143 22.5 6.8125 C23.2425 7.658125 23.985 8.50375 24.75 9.375 C25.471875 10.179375 26.19375 10.98375 26.9375 11.8125 C31.70050255 18.54640015 31.62808228 26.43748395 30.75 34.375 C27.68621868 43.40689066 27.68621868 43.40689066 23.75 45.375 C23.40939902 39.81185061 24.45644327 36.40318207 26.75 31.375 C27.52028459 28.72335366 28.13556881 26.06904446 28.75 23.375 C27.43 23.705 26.11 24.035 24.75 24.375 C24.09 22.725 23.43 21.075 22.75 19.375 C23.74 19.045 24.73 18.715 25.75 18.375 C25.75 17.715 25.75 17.055 25.75 16.375 C24.76 16.045 23.77 15.715 22.75 15.375 C23.08 14.055 23.41 12.735 23.75 11.375 C23.09 11.375 22.43 11.375 21.75 11.375 C21.75 10.715 21.75 10.055 21.75 9.375 C19.77 9.045 17.79 8.715 15.75 8.375 C15.75 7.715 15.75 7.055 15.75 6.375 C13.11 6.375 10.47 6.375 7.75 6.375 C7.255 4.395 7.255 4.395 6.75 2.375 C4.44 3.035 2.13 3.695 -0.25 4.375 C-0.58 3.385 -0.91 2.395 -1.25 1.375 C-6.53 2.035 -11.81 2.695 -17.25 3.375 C-17.25 3.705 -17.25 4.035 -17.25 4.375 C-20.88 4.375 -24.51 4.375 -28.25 4.375 C-19.40996373 -0.04501813 -9.7071306 0.13093886 0 0 Z " fill="#9968A2" transform="translate(193.25,55.625)"/>
<path d="M0 0 C-1.28197266 1.13888672 -1.28197266 1.13888672 -2.58984375 2.30078125 C-3.70600122 3.30438502 -4.82187176 4.30830796 -5.9375 5.3125 C-6.50146484 5.81201172 -7.06542969 6.31152344 -7.64648438 6.82617188 C-11.05919581 9.89871764 -11.05919581 9.89871764 -13 14 C-11.906875 13.505 -10.81375 13.01 -9.6875 12.5 C-6 11 -6 11 -3 11 C-4.5162749 15.01947428 -6.94379267 16.62446461 -10.4375 19 C-13.9500581 21.39471338 -16.65047786 23.43191215 -19 27 C-18.505 27.61875 -18.01 28.2375 -17.5 28.875 C-16 31 -16 31 -16 33 C-18.90548882 35.04169485 -20.40142046 36 -24 36 C-23.42415568 33.61435923 -22.77772405 31.33317216 -22 29 C-23.423125 30.2375 -23.423125 30.2375 -24.875 31.5 C-27.75 34 -27.75 34 -30 34 C-28.50958227 30.20620942 -26.30937488 28.31656242 -23 26 C-22.34 26 -21.68 26 -21 26 C-21.2475 25.071875 -21.2475 25.071875 -21.5 24.125 C-22.20075317 19.74529271 -22.07734251 15.42571011 -22 11 C-21.67 11 -21.34 11 -21 11 C-21 12.65 -21 14.3 -21 16 C-17.08396696 13.20579508 -17.08396696 13.20579508 -15 9 C-16.32 9 -17.64 9 -19 9 C-19 8.34 -19 7.68 -19 7 C-18.030625 6.608125 -17.06125 6.21625 -16.0625 5.8125 C-12.17204955 4.17233046 -8.6184924 2.08257929 -5.015625 -0.109375 C-3 -1 -3 -1 0 0 Z " fill="#8E8C97" transform="translate(125,243)"/>
<path d="M0 0 C4.47419214 1.40617467 6.72845797 3.72845797 10 7 C13.51716303 7 14.37121748 6.17554415 17 4 C17 8 17 8 15 11 C14.34 11 13.68 11 13 11 C12.67 11.66 12.34 12.32 12 13 C9.4375 13.625 9.4375 13.625 7 14 C7 14.33 7 14.66 7 15 C7.99 14.34 8.98 13.68 10 13 C9.77610442 16.31211041 8.81539834 17.17162819 6.33203125 19.48046875 C5.16839879 20.39508791 3.99449997 21.29674482 2.8125 22.1875 C1.8848584 22.8995459 1.8848584 22.8995459 0.93847656 23.62597656 C-3.51560937 26.99633235 -8.07841438 30.18900966 -12.75 33.25 C-13.34578857 33.64469482 -13.94157715 34.03938965 -14.55541992 34.44604492 C-15.99653756 35.36411041 -17.49444568 36.19193412 -19 37 C-19.66 36.67 -20.32 36.34 -21 36 C-17.04 33.36 -13.08 30.72 -9 28 C-10.32 28.33 -11.64 28.66 -13 29 C-11.85221336 27.85221336 -10.70409645 26.70475579 -9.5546875 25.55859375 C-8.47139432 24.47257873 -7.39367641 23.38098592 -6.3203125 22.28515625 C-3.52478961 19.44614745 -0.74414206 16.73334571 2.375 14.25 C5.21794612 12.20365457 5.21794612 12.20365457 6 9 C4.03177114 7.03177114 0.65191291 7.33751619 -2 7 C-1.34 4.69 -0.68 2.38 0 0 Z " fill="#F7F6F9" transform="translate(134,239)"/>
<path d="M0 0 C5.82978688 3.52294648 10.53488288 8.98877883 12.5625 15.5 C13.38686786 22.76311472 13.75596934 29.73080526 9.18359375 35.75390625 C3.2297269 42.16686644 -1.7431253 46.36076667 -10.75 46.875 C-15.89051511 46.78757627 -19.95430956 44.87407721 -24.4375 42.5 C-23.4475 42.005 -23.4475 42.005 -22.4375 41.5 C-21.7775 41.83 -21.1175 42.16 -20.4375 42.5 C-9.38172919 44.23202645 -9.38172919 44.23202645 0.91796875 40.87109375 C7.29284497 35.5561732 10.31803431 30.44162758 11.1875 22.1875 C11.31974874 20.62559683 11.44715396 19.06324232 11.5625 17.5 C10.9025 17.5 10.2425 17.5 9.5625 17.5 C9.211875 16.46875 8.86125 15.4375 8.5 14.375 C5.8541136 8.18036548 0.27859256 4.69428702 -5.4375 1.5 C-5.7675 1.17 -6.0975 0.84 -6.4375 0.5 C-13.37479421 -0.35344569 -18.24065684 0.18635439 -23.87890625 4.40625 C-25.4375 5.5 -25.4375 5.5 -27.4375 5.5 C-27.705625 6.03625 -27.97375 6.5725 -28.25 7.125 C-29.10661489 8.83822977 -30.02050591 10.52323486 -30.96875 12.1875 C-32.62194124 15.91597385 -32.93352444 18.81571812 -33.125 22.875 C-33.22361328 24.74285156 -33.22361328 24.74285156 -33.32421875 26.6484375 C-33.36160156 27.58945313 -33.39898437 28.53046875 -33.4375 29.5 C-35.87676741 27.06073259 -35.75990519 26.29830814 -35.8125 22.9375 C-35.66480452 16.1238154 -33.47765695 10.99352516 -29.1875 5.75 C-28.28 5.0075 -27.3725 4.265 -26.4375 3.5 C-25.90769531 3.03464844 -25.37789062 2.56929688 -24.83203125 2.08984375 C-17.92210612 -3.19941663 -7.89849247 -3.43345774 0 0 Z " fill="#FDF1B9" transform="translate(272.4375,80.5)"/>
<path d="M0 0 C2 3.75 2 3.75 2 6 C0.02 6.66 -1.96 7.32 -4 8 C-4 8.66 -4 9.32 -4 10 C-5.30973998 11.3565164 -6.64802142 12.68557638 -8 14 C-9.33827304 15.66270287 -10.67189785 17.32916181 -12 19 C-14.19378113 21.55941132 -15.65044943 22.49249234 -19 23 C-21 23 -23 23 -25 23 C-25.33 21.68 -25.66 20.36 -26 19 C-24.96101563 18.29875 -23.92203125 17.5975 -22.8515625 16.875 C-14.97738653 11.52951514 -7.2972736 6.12199155 0 0 Z " fill="#E4E4E5" transform="translate(143,255)"/>
<path d="M0 0 C1.32451172 0.17982422 1.32451172 0.17982422 2.67578125 0.36328125 C3.33964844 0.47027344 4.00351563 0.57726562 4.6875 0.6875 C4.6875 1.0175 4.6875 1.3475 4.6875 1.6875 C3.40875 1.64625 2.13 1.605 0.8125 1.5625 C-1.33121492 1.44537127 -1.33121492 1.44537127 -3.3125 1.6875 C-5.36520463 3.52938612 -5.36520463 3.52938612 -6.3125 5.6875 C-3.6725 5.3575 -1.0325 5.0275 1.6875 4.6875 C2.0175 5.6775 2.3475 6.6675 2.6875 7.6875 C0.64675695 11.25880033 -0.87003136 13.3925209 -4.3125 15.6875 C-5.034375 14.945 -5.75625 14.2025 -6.5 13.4375 C-7.428125 12.53 -8.35625 11.6225 -9.3125 10.6875 C-10.01375 9.965625 -10.715 9.24375 -11.4375 8.5 C-15.74205327 5.78625989 -20.32553203 5.35126456 -25.3125 4.6875 C-25.3125 4.3575 -25.3125 4.0275 -25.3125 3.6875 C-24.28769531 3.65011719 -23.26289062 3.61273438 -22.20703125 3.57421875 C-20.84631938 3.50852921 -19.48564389 3.44208291 -18.125 3.375 C-17.45146484 3.35244141 -16.77792969 3.32988281 -16.08398438 3.30664062 C-9.88775318 2.97415993 -6.16058537 -0.90355252 0 0 Z " fill="#7569A0" transform="translate(149.3125,232.3125)"/>
<path d="M0 0 C1.32 0.99 2.64 1.98 4 3 C3.44064577 6.90857398 2.32566703 9.40455205 0.0625 12.625 C-0.46214844 13.38039062 -0.98679688 14.13578125 -1.52734375 14.9140625 C-2.01332031 15.60242188 -2.49929687 16.29078125 -3 17 C-5.49118953 20.7367843 -5.2065226 22.74451819 -5.125 27.1875 C-5.09792969 29.09595703 -5.09792969 29.09595703 -5.0703125 31.04296875 C-5.04710937 32.01878906 -5.02390625 32.99460937 -5 34 C-5.9590625 34.1546875 -5.9590625 34.1546875 -6.9375 34.3125 C-7.9584375 34.6528125 -7.9584375 34.6528125 -9 35 C-9.33 35.99 -9.66 36.98 -10 38 C-10.99 37.67 -11.98 37.34 -13 37 C-12.525625 36.401875 -12.05125 35.80375 -11.5625 35.1875 C-8.7518818 31.25263452 -8.88920273 27.82806382 -8.75 23.125 C-8.32903962 16.39653493 -8.32903962 16.39653493 -5.5625 13.0625 C-4.716875 12.381875 -3.87125 11.70125 -3 11 C-1.68998504 7.49895468 -1.68998504 7.49895468 -1 4 C-0.79375 3.195625 -0.5875 2.39125 -0.375 1.5625 C-0.25125 1.046875 -0.1275 0.53125 0 0 Z " fill="#B6B2C3" transform="translate(156,236)"/>
<path d="M0 0 C0.99 0.33 1.98 0.66 3 1 C2.67 1.33 2.34 1.66 2 2 C3.65 2 5.3 2 7 2 C4.22700584 4.95272527 1.46599962 7.15771974 -2 9.25 C-2.845625 9.77078125 -3.69125 10.2915625 -4.5625 10.828125 C-7 12 -7 12 -11 12 C-11 12.66 -11 13.32 -11 14 C-9.68 14 -8.36 14 -7 14 C-7.5590888 17.24271506 -8.4132178 18.93057424 -11 21 C-11.66 21 -12.32 21 -13 21 C-13.42155993 14.88738098 -13.11426669 11.85272482 -9 7 C-3.45679012 1.72839506 -3.45679012 1.72839506 0 0 Z " fill="#F4F2F8" transform="translate(117,238)"/>
<path d="M0 0 C1.65 0.33 3.3 0.66 5 1 C7.799429 8.42017326 8.52870963 16.49343221 5.94921875 24.09765625 C2.77033777 30.61483111 2.77033777 30.61483111 0 32 C-0.34060098 26.43685061 0.70644327 23.02818207 3 18 C3.77028459 15.34835366 4.38556881 12.69404446 5 10 C3.68 10.33 2.36 10.66 1 11 C0.34 9.35 -0.32 7.7 -1 6 C-0.01 5.67 0.98 5.34 2 5 C2 4.34 2 3.68 2 3 C1.01 2.67 0.02 2.34 -1 2 C-0.67 1.34 -0.34 0.68 0 0 Z " fill="#925393" transform="translate(217,69)"/>
<path d="M0 0 C0.89203125 0.11085937 1.7840625 0.22171875 2.703125 0.3359375 C3.37859375 0.43132812 4.0540625 0.52671875 4.75 0.625 C5.24937532 7.28333759 3.38747876 12.81785141 -0.6875 18.0625 C-4.01 21.385 -4.01 21.385 -7.25 21.625 C-7.58 20.965 -7.91 20.305 -8.25 19.625 C-9.24 20.615 -10.23 21.605 -11.25 22.625 C-11.91 22.295 -12.57 21.965 -13.25 21.625 C-10.73169253 18.50229874 -9.5238451 17.67976902 -5.5 16.875 C-3.89125 16.75125 -3.89125 16.75125 -2.25 16.625 C-1.51919734 14.64753397 -0.85578253 12.64427511 -0.25 10.625 C-0.58 9.965 -0.91 9.305 -1.25 8.625 C-0.92 7.305 -0.59 5.985 -0.25 4.625 C-3.55 4.955 -6.85 5.285 -10.25 5.625 C-9.25 1.625 -9.25 1.625 -7.515625 0.3515625 C-4.77103029 -0.52860063 -2.84836602 -0.374785 0 0 Z " fill="#E6E3EA" transform="translate(151.25,233.375)"/>
<path d="M0 0 C2 1 2 1 3 2 C3 3.32 3 4.64 3 6 C0.625 8.125 0.625 8.125 -2 10 C-2.66 10.66 -3.32 11.32 -4 12 C-9.45394843 12.36975922 -13.89277 11.98035449 -19 10 C-19.33 9.01 -19.66 8.02 -20 7 C-18.68 6.34 -17.36 5.68 -16 5 C-16 5.99 -16 6.98 -16 8 C-15.236875 7.649375 -14.47375 7.29875 -13.6875 6.9375 C-11 6 -11 6 -8 7 C-4.9176521 5.11081903 -2.50179559 2.59114543 0 0 Z " fill="#FAF9FA" transform="translate(134,270)"/>
<path d="M0 0 C0.66 0 1.32 0 2 0 C2 0.66 2 1.32 2 2 C2.99 2 3.98 2 5 2 C4.8125 3.75 4.8125 3.75 4 6 C3.21625 6.5671875 2.4325 7.134375 1.625 7.71875 C-1.5655593 10.49149796 -2.42566003 12.78760009 -3.8125 16.75 C-4.23144531 17.92046875 -4.65039062 19.0909375 -5.08203125 20.296875 C-5.53642578 21.63492188 -5.53642578 21.63492188 -6 23 C-6.66 23 -7.32 23 -8 23 C-8.33 23.66 -8.66 24.32 -9 25 C-8.64583553 16.14588828 -4.88748657 7.33122985 0 0 Z " fill="#5658A5" transform="translate(73,227)"/>
<path d="M0 0 C13.83195364 11.29139073 13.83195364 11.29139073 16 19 C14.02 19 12.04 19 10 19 C9.67 17.35 9.34 15.7 9 14 C8.01 13.67 7.02 13.34 6 13 C6.33 12.01 6.66 11.02 7 10 C4.36 9.67 1.72 9.34 -1 9 C-0.67 6.03 -0.34 3.06 0 0 Z " fill="#8262A4" transform="translate(177,210)"/>
<path d="M0 0 C1.32 0.33 2.64 0.66 4 1 C4.22895113 5.26998383 4.42931899 9.54087246 4.625 13.8125 C4.68945312 15.00810547 4.75390625 16.20371094 4.8203125 17.43554688 C5.14672143 24.9225516 4.72494237 31.69936365 3 39 C1.515 39.495 1.515 39.495 0 40 C0.16242188 38.73027344 0.32484375 37.46054688 0.4921875 36.15234375 C1.06867577 30.94459727 1.14797792 25.79763636 1.125 20.5625 C1.12886719 19.68529297 1.13273437 18.80808594 1.13671875 17.90429688 C1.12784275 11.88193381 0.70577928 5.97983154 0 0 Z " fill="#7C80B0" transform="translate(272,167)"/>
<path d="M0 0 C0.33 0 0.66 0 1 0 C1.10957031 1.10859375 1.21914062 2.2171875 1.33203125 3.359375 C1.49152762 4.82298873 1.65172049 6.28652667 1.8125 7.75 C1.88275391 8.47960937 1.95300781 9.20921875 2.02539062 9.9609375 C2.50575761 14.18816696 3.17281115 16.80876217 6 20 C6 20.66 6 21.32 6 22 C3.09451118 24.04169485 1.59857954 25 -2 25 C-1.42415568 22.61435923 -0.77772405 20.33317216 0 18 C-1.423125 19.2375 -1.423125 19.2375 -2.875 20.5 C-5.75 23 -5.75 23 -8 23 C-6.50958227 19.20620942 -4.30937488 17.31656242 -1 15 C-0.34 15 0.32 15 1 15 C0.835 14.38125 0.67 13.7625 0.5 13.125 C-0.20075317 8.74529271 -0.07734251 4.42571011 0 0 Z " fill="#A09BB8" transform="translate(103,254)"/>
<path d="M0 0 C6.15234375 0.5859375 6.15234375 0.5859375 8 1 C8.495 1.99 8.495 1.99 9 3 C3.34282408 4.8370449 -2.0859355 5.55494969 -8 6.0625 C-9.72929361 6.21865263 -11.45846373 6.37617951 -13.1875 6.53515625 C-14.00347656 6.61008301 -14.81945312 6.68500977 -15.66015625 6.76220703 C-18.79089548 7.0803769 -21.88986372 7.52249266 -25 8 C-24.67 7.01 -24.34 6.02 -24 5 C-21.48146969 4.4648501 -18.96129252 3.94670571 -16.4375 3.4375 C-15.73302734 3.28603516 -15.02855469 3.13457031 -14.30273438 2.97851562 C-9.52811995 2.03239387 -5.77928414 2.05167949 -1 3 C-0.67 2.01 -0.34 1.02 0 0 Z " fill="#9467A2" transform="translate(200,105)"/>
<path d="M0 0 C4.94539433 3.97570917 8.50593947 7.70596889 12 13 C11.34 13.66 10.68 14.32 10 15 C9.34 14.34 8.68 13.68 8 13 C4.40320934 13.32326553 4.40320934 13.32326553 1 14 C0.67 14.99 0.34 15.98 0 17 C0 11.39 0 5.78 0 0 Z " fill="#8286B4" transform="translate(292,97)"/>
<path d="M0 0 C-1.3510845 4.05325351 -4.09754616 5.74121519 -7.375 8.25 C-8.00188721 8.73436523 -8.62877441 9.21873047 -9.2746582 9.71777344 C-20.84885603 18.55662552 -20.84885603 18.55662552 -26 21 C-26.99 20.67 -27.98 20.34 -29 20 C-28.01 19.67 -27.02 19.34 -26 19 C-26 18.34 -26 17.68 -26 17 C-19.375 13 -19.375 13 -16 13 C-16 12.34 -16 11.68 -16 11 C-15.34 11 -14.68 11 -14 11 C-14 10.34 -14 9.68 -14 9 C-13.34 9 -12.68 9 -12 9 C-12 8.34 -12 7.68 -12 7 C-10.68 7 -9.36 7 -8 7 C-7.9175 6.401875 -7.835 5.80375 -7.75 5.1875 C-6.40138854 1.25404992 -4.03742556 0 0 0 Z " fill="#8084AF" transform="translate(288,281)"/>
<path d="M0 0 C0.99 0.33 1.98 0.66 3 1 C2.54109375 1.81339844 2.0821875 2.62679687 1.609375 3.46484375 C-3.36151984 12.74872089 -5.99000299 21.68784142 -8 32 C-8.33 32 -8.66 32 -9 32 C-9.05451714 29.95863605 -9.09302485 27.91684144 -9.125 25.875 C-9.14820312 24.73804688 -9.17140625 23.60109375 -9.1953125 22.4296875 C-8.99672109 18.94242233 -8.2524801 16.2446138 -7 13 C-6.34 13 -5.68 13 -5 13 C-5.103125 12.154375 -5.20625 11.30875 -5.3125 10.4375 C-4.8968594 5.86545337 -2.86470536 3.45810861 0 0 Z " fill="#857AAB" transform="translate(129,146)"/>
<path d="M0 0 C3.5 1.25 3.5 1.25 5.5 4.25 C4.55640625 4.19779297 4.55640625 4.19779297 3.59375 4.14453125 C-0.89282791 4.00263647 -4.61796136 4.04170797 -8.8125 5.75 C-12.13291171 7.10067595 -14.00193502 7.57794359 -17.5 7.25 C-17.5 6.59 -17.5 5.93 -17.5 5.25 C-18.49 4.92 -19.48 4.59 -20.5 4.25 C-19.62988281 4.06824219 -19.62988281 4.06824219 -18.7421875 3.8828125 C-0.3213304 -0.06885651 -0.3213304 -0.06885651 0 0 Z " fill="#888693" transform="translate(116.5,279.75)"/>
<path d="M0 0 C0.93714844 0.17402344 1.87429687 0.34804688 2.83984375 0.52734375 C5.23450532 0.98746806 7.61818488 1.47802775 10 2 C10 2.33 10 2.66 10 3 C7.68756208 3.02685412 5.3750373 3.04632841 3.0625 3.0625 C1.77472656 3.07410156 0.48695312 3.08570313 -0.83984375 3.09765625 C-4 3 -4 3 -5 2 C-6.64933228 2.06399526 -8.29615131 2.20073916 -9.9375 2.375 C-10.83339844 2.46523438 -11.72929688 2.55546875 -12.65234375 2.6484375 C-15.01469808 2.87825815 -15.01469808 2.87825815 -17 4 C-18.70702735 4.06996014 -20.41668003 4.08440154 -22.125 4.0625 C-23.03507812 4.05347656 -23.94515625 4.04445313 -24.8828125 4.03515625 C-25.58148438 4.02355469 -26.28015625 4.01195312 -27 4 C-27.33 3.01 -27.66 2.02 -28 1 C-27.34 0.67 -26.68 0.34 -26 0 C-25.01 0.33 -24.02 0.66 -23 1 C-23 1.66 -23 2.32 -23 3 C-22.17757812 2.69964844 -21.35515625 2.39929688 -20.5078125 2.08984375 C-13.14410737 -0.41857775 -7.62311585 -1.55398991 0 0 Z " fill="#777097" transform="translate(122,284)"/>
<path d="M0 0 C-0.66 0.66 -1.32 1.32 -2 2 C-3.32 2 -4.64 2 -6 2 C-6 2.66 -6 3.32 -6 4 C-8.64 4 -11.28 4 -14 4 C-14.33 5.32 -14.66 6.64 -15 8 C-15.69867188 8.13277344 -16.39734375 8.26554687 -17.1171875 8.40234375 C-18.02726563 8.57894531 -18.93734375 8.75554687 -19.875 8.9375 C-20.77992188 9.11152344 -21.68484375 9.28554687 -22.6171875 9.46484375 C-24.99956317 9.89963701 -24.99956317 9.89963701 -27 11 C-27.66 10.34 -28.32 9.68 -29 9 C-5.2029468 -1.65757597 -5.2029468 -1.65757597 0 0 Z " fill="#8E77A8" transform="translate(165,61)"/>
<path d="M0 0 C0.66 0.33 1.32 0.66 2 1 C-1.75 6.75 -1.75 6.75 -4 9 C-4.45375 9.515625 -4.9075 10.03125 -5.375 10.5625 C-7.31347614 12.27730582 -8.43723744 12.69849852 -11 13 C-13.75 12.5625 -13.75 12.5625 -16 12 C-13.48068381 9.20740206 -10.62828625 7.40465584 -7.4375 5.4375 C-3.48604104 3.01277951 -3.48604104 3.01277951 0 0 Z " fill="#C4C4C5" transform="translate(135,265)"/>
<path d="M0 0 C0.99 0.33 1.98 0.66 3 1 C3.33 0.67 3.66 0.34 4 0 C5.66617115 -0.04063832 7.33388095 -0.042721 9 0 C3.39486218 5.78029838 -2.65559098 11.04343045 -9 16 C-9 15.01 -9 14.02 -9 13 C-8.34 13 -7.68 13 -7 13 C-6.67 11.02 -6.34 9.04 -6 7 C-5.01 7.33 -4.02 7.66 -3 8 C-3 7.34 -3 6.68 -3 6 C-2.34 5.34 -1.68 4.68 -1 4 C-0.3574765 1.93125966 -0.3574765 1.93125966 0 0 Z " fill="#8670A8" transform="translate(146,122)"/>
<path d="M0 0 C0.66 0.99 1.32 1.98 2 3 C1.278125 3.75925781 0.55625 4.51851563 -0.1875 5.30078125 C-1.1253898 6.30432334 -2.06286856 7.30824969 -3 8.3125 C-3.47695312 8.81201172 -3.95390625 9.31152344 -4.4453125 9.82617188 C-7.41934329 12.88595524 -7.41934329 12.88595524 -8 17 C-8.99 17.33 -9.98 17.66 -11 18 C-11 17.34 -11 16.68 -11 16 C-11.66 15.67 -12.32 15.34 -13 15 C-4.738041 4.44191344 -4.738041 4.44191344 0 0 Z " fill="#766FA6" transform="translate(104,94)"/>
<path d="M0 0 C0.33 0.66 0.66 1.32 1 2 C-1.77472776 8.93681939 -6.55691898 13.35825855 -13 17 C-13.99 16.67 -14.98 16.34 -16 16 C-13.45967066 13.3538236 -10.78573111 10.94284487 -8 8.5625 C-4.96025637 5.93108014 -2.37534934 3.26610534 0 0 Z " fill="#DCDBDD" transform="translate(147,264)"/>
<path d="M0 0 C-3.79882412 3.43653844 -8.28932476 4.68800779 -13.0625 6.25 C-13.87783203 6.53101563 -14.69316406 6.81203125 -15.53320312 7.1015625 C-16.70979492 7.49214844 -16.70979492 7.49214844 -17.91015625 7.890625 C-18.62308838 8.12813477 -19.33602051 8.36564453 -20.07055664 8.61035156 C-22 9 -22 9 -25 8 C-24.34 8 -23.68 8 -23 8 C-23 7.34 -23 6.68 -23 6 C-19.36576791 3.67409146 -16.22911669 3.83734167 -12 4 C-12 3.34 -12 2.68 -12 2 C-10.56656 1.46809459 -9.12804633 0.94984742 -7.6875 0.4375 C-6.88699219 0.14746094 -6.08648437 -0.14257812 -5.26171875 -0.44140625 C-3 -1 -3 -1 0 0 Z " fill="#8082AF" transform="translate(252,306)"/>
<path d="M0 0 C0.66 0 1.32 0 2 0 C2.33 0.99 2.66 1.98 3 3 C4.62332967 4.38576923 6.28724465 5.72641268 8 7 C3.46298506 8.45184478 -0.18061476 9.23509196 -5 9 C-4.42676569 5.13066838 -2.61046448 2.84777943 0 0 Z " fill="#585C9D" transform="translate(201,310)"/>
<path d="M0 0 C3.30184991 -0.57782373 5.31905351 -0.46909647 8.109375 1.453125 C11.20179921 4.1392453 13.71840629 6.57760943 16 10 C16.07905064 12.33199388 16.08798769 14.66832622 16 17 C14 15 14 15 13.3125 12.75 C10.65809046 7.18838002 5.21034153 3.99989361 0 1 C0 0.67 0 0.34 0 0 Z " fill="#F0CF70" transform="translate(267,81)"/>
<path d="M0 0 C0.66 0.33 1.32 0.66 2 1 C-2.48116857 5.96854642 -7.27134199 10.12891044 -12.75 13.9375 C-13.30453857 14.32671631 -13.85907715 14.71593262 -14.43041992 15.11694336 C-17.21941021 17.01123264 -19.63819457 18.48593752 -23 19 C-19.04874874 14.63999861 -14.51939066 11.41343894 -9.73828125 8.00390625 C-6.32090692 5.50303174 -3.16367404 2.8121547 0 0 Z " fill="#A7A7A7" transform="translate(132,255)"/>
<path d="M0 0 C2.31 0.33 4.62 0.66 7 1 C6.814375 1.94875 6.62875 2.8975 6.4375 3.875 C5.71313368 6.89868793 5.71313368 6.89868793 7 9 C10.02934491 9.65772428 10.02934491 9.65772428 13 10 C13 10.66 13 11.32 13 12 C11.68 12 10.36 12 9 12 C8.67 12.66 8.34 13.32 8 14 C6.654869 12.42667714 5.32424946 10.84093859 4 9.25 C3.2575 8.36828125 2.515 7.4865625 1.75 6.578125 C0 4 0 4 0 0 Z " fill="#6B6FAA" transform="translate(72,298)"/>
<path d="M0 0 C0.66 0 1.32 0 2 0 C1.50104522 7.15168515 -1.31563815 13.41291281 -4 20 C-4.66 19.67 -5.32 19.34 -6 19 C-5.979375 18.236875 -5.95875 17.47375 -5.9375 16.6875 C-5.87057159 13.89814214 -5.87057159 13.89814214 -7 11 C-6.34 10.34 -5.68 9.68 -5 9 C-4.01 9.66 -3.02 10.32 -2 11 C-1.855625 9.9275 -1.71125 8.855 -1.5625 7.75 C-1.16250558 5.08337051 -0.72408076 2.58600271 0 0 Z " fill="#998CB8" transform="translate(200,278)"/>
<path d="M0 0 C0.66 0 1.32 0 2 0 C2 0.99 2 1.98 2 3 C4.31 3 6.62 3 9 3 C9 2.34 9 1.68 9 1 C12.465 0.505 12.465 0.505 16 0 C16 0.66 16 1.32 16 2 C14.86820313 2.49371094 13.73640625 2.98742187 12.5703125 3.49609375 C11.08852958 4.14320148 9.6067594 4.79033841 8.125 5.4375 C7.37863281 5.76298828 6.63226563 6.08847656 5.86328125 6.42382812 C5.14785156 6.73642578 4.43242187 7.04902344 3.6953125 7.37109375 C2.7055542 7.8031311 2.7055542 7.8031311 1.69580078 8.24389648 C0.45008125 8.79932312 -0.78006037 9.39003018 -2 10 C-2 9.01 -2 8.02 -2 7 C-1.34 7 -0.68 7 0 7 C-0.185625 6.401875 -0.37125 5.80375 -0.5625 5.1875 C-1 3 -1 3 0 0 Z " fill="#8E75A9" transform="translate(158,112)"/>
<path d="M0 0 C-1.55999545 4.21198772 -4.55248619 6.27071823 -8 9 C-8.66 9.66 -9.32 10.32 -10 11 C-11.60725635 7.78548731 -11.05748185 4.56387464 -11 1 C-9.515 1.99 -9.515 1.99 -8 3 C-7.4225 2.505 -6.845 2.01 -6.25 1.5 C-4 0 -4 0 0 0 Z " fill="#827D99" transform="translate(116,258)"/>
<path d="M0 0 C1.32 0.66 2.64 1.32 4 2 C3 3 2 4 1 5 C0.40960938 5.62777344 -0.18078125 6.25554687 -0.7890625 6.90234375 C-3.09944587 9.09435058 -5.39912217 10.67290483 -8.125 12.3125 C-8.99382812 12.84488281 -9.86265625 13.37726563 -10.7578125 13.92578125 C-11.49773437 14.28027344 -12.23765625 14.63476562 -13 15 C-13.66 14.67 -14.32 14.34 -15 14 C-11.04 11.36 -7.08 8.72 -3 6 C-4.32 6.33 -5.64 6.66 -7 7 C-4.66666667 4.66666667 -2.33333333 2.33333333 0 0 Z " fill="#F8F8FA" transform="translate(128,261)"/>
<path d="M0 0 C0.66 0 1.32 0 2 0 C1.52269189 5.82618947 -0.19258601 9.88664965 -3.0625 14.9375 C-3.62807617 15.96327148 -3.62807617 15.96327148 -4.20507812 17.00976562 C-5.12700942 18.67857796 -6.06215512 20.34007864 -7 22 C-7.33 22 -7.66 22 -8 22 C-8 20.35 -8 18.7 -8 17 C-7.34 17 -6.68 17 -6 17 C-5.67 15.02 -5.34 13.04 -5 11 C-4.34 11 -3.68 11 -3 11 C-2.87625 10.113125 -2.7525 9.22625 -2.625 8.3125 C-2.05587264 5.29612498 -1.23385564 2.79673946 0 0 Z " fill="#7478A9" transform="translate(317,233)"/>
<path d="M0 0 C0.61875 0.165 1.2375 0.33 1.875 0.5 C3.96063386 1.07634644 3.96063386 1.07634644 6 1 C7.66666667 1 9.33333333 1 11 1 C11 2.32 11 3.64 11 5 C8.69 5.66 6.38 6.32 4 7 C4 6.34 4 5.68 4 5 C2.35 4.67 0.7 4.34 -1 4 C-0.67 2.68 -0.34 1.36 0 0 Z " fill="#A7A2BC" transform="translate(140,236)"/>
<path d="M0 0 C1.65 0 3.3 0 5 0 C2.15877387 2.25723277 -0.67007886 3.92922127 -3.9375 5.5 C-7.39685215 7.19135238 -10.7426934 8.93703915 -14 11 C-13.83984375 8.6796875 -13.83984375 8.6796875 -13 6 C-10.56640625 4.3828125 -10.56640625 4.3828125 -7.5625 3.125 C-6.07943359 2.47917969 -6.07943359 2.47917969 -4.56640625 1.8203125 C-2 1 -2 1 0 2 C0 1.34 0 0.68 0 0 Z " fill="#8481B4" transform="translate(99,188)"/>
<path d="M0 0 C0.66 0 1.32 0 2 0 C2.50433761 6.8365765 2.15898521 12.32486299 -2 18 C-2.99 18.66 -3.98 19.32 -5 20 C-5.33 18.35 -5.66 16.7 -6 15 C-5.36578125 14.80664062 -4.7315625 14.61328125 -4.078125 14.4140625 C-1.67611298 13.1088608 -1.67611298 13.1088608 -1.171875 9.9609375 C-1.03265625 8.77757813 -0.8934375 7.59421875 -0.75 6.375 C-0.60046875 5.18648438 -0.4509375 3.99796875 -0.296875 2.7734375 C-0.19890625 1.85820313 -0.1009375 0.94296875 0 0 Z " fill="#EDB330" transform="translate(282,98)"/>
<path d="M0 0 C0.66 0 1.32 0 2 0 C2 2 2 2 -0.3125 4.4375 C-1.199375 5.283125 -2.08625 6.12875 -3 7 C-3.45375 7.50273437 -3.9075 8.00546875 -4.375 8.5234375 C-6.33694342 10.30616494 -8.24899012 11.16261903 -10.6875 12.1875 C-11.49574219 12.53167969 -12.30398437 12.87585938 -13.13671875 13.23046875 C-13.75160156 13.48441406 -14.36648437 13.73835938 -15 14 C-15.66 13.34 -16.32 12.68 -17 12 C-16.19175781 11.55269531 -15.38351563 11.10539063 -14.55078125 10.64453125 C-9.02104008 7.51612521 -4.27303005 4.70033306 0 0 Z " fill="#8387B3" transform="translate(249,243)"/>
<path d="M0 0 C0.99 0.33 1.98 0.66 3 1 C2.38511719 1.67095703 2.38511719 1.67095703 1.7578125 2.35546875 C-4.0161545 8.83391497 -5.46085264 14.56743732 -7 23 C-7.33 23 -7.66 23 -8 23 C-8.69361367 14.89242686 -7.71127779 8.78158578 -3 2 C-2.01 1.34 -1.02 0.68 0 0 Z " fill="#625D97" transform="translate(109,241)"/>
<path d="M0 0 C0.66 0.99 1.32 1.98 2 3 C0.28873721 8.33511341 -2.27018143 11.8669578 -6 16 C-7.32 15.34 -8.64 14.68 -10 14 C-8.88625 12.948125 -8.88625 12.948125 -7.75 11.875 C-4.28682569 8.25440867 -1.5921543 4.77646289 0 0 Z " fill="#787BAE" transform="translate(291,114)"/>
<path d="M0 0 C-11.34430048 8.18314165 -11.34430048 8.18314165 -16 10 C-16.99 9.67 -17.98 9.34 -19 9 C-18.34 9 -17.68 9 -17 9 C-17 8.34 -17 7.68 -17 7 C-14.98828125 5.5625 -14.98828125 5.5625 -12.3125 4 C-11.44238281 3.484375 -10.57226562 2.96875 -9.67578125 2.4375 C-2.66150598 -1.33075299 -2.66150598 -1.33075299 0 0 Z " fill="#D8D7DB" transform="translate(126,267)"/>
<path d="M0 0 C2.97 0.495 2.97 0.495 6 1 C6 1.66 6 2.32 6 3 C8.31 2.34 10.62 1.68 13 1 C11.19587357 4.26460973 10.16605307 5.88929795 7 8 C4.35247996 5.42215154 2.05567935 3.08351902 0 0 Z " fill="#787197" transform="translate(138,240)"/>
<path d="M0 0 C0.66 0 1.32 0 2 0 C2 0.66 2 1.32 2 2 C2.99 1.67 3.98 1.34 5 1 C6.76462683 4.08809695 7 5.23312136 7 9 C7.66 9 8.32 9 9 9 C10.85776765 12.13498292 11.20140476 14.37471432 11 18 C8.7587995 15.10985487 6.80959749 12.14091037 4.9375 9 C4.43089844 8.154375 3.92429687 7.30875 3.40234375 6.4375 C2.18542039 4.32229059 1.06237379 2.19591138 0 0 Z " fill="#8589B5" transform="translate(257,138)"/>
<path d="M0 0 C1.6026213 3.2052426 0.04134314 5.70241339 -1 9 C-1.33 9.99 -1.66 10.98 -2 12 C-2.99 12.33 -3.98 12.66 -5 13 C-6.66710346 14.49985609 -6.66710346 14.49985609 -8 16 C-8 12.0838073 -6.56499825 10.21921237 -4.5625 6.875 C-3.92441406 5.79992187 -3.28632812 4.72484375 -2.62890625 3.6171875 C-1 1 -1 1 0 0 Z " fill="#8380AF" transform="translate(90,110)"/>
<path d="M0 0 C0.66796875 1.76953125 0.66796875 1.76953125 1 4 C-0.07421875 5.88671875 -0.07421875 5.88671875 -1.6875 7.6875 C-2.20699219 8.28949219 -2.72648438 8.89148438 -3.26171875 9.51171875 C-5.18015576 11.15424572 -6.53373097 11.59701487 -9 12 C-9.33 11.34 -9.66 10.68 -10 10 C-10.99 10.99 -11.98 11.98 -13 13 C-13.66 12.67 -14.32 12.34 -15 12 C-12.49263213 8.89086384 -11.42627182 8.05879611 -7.375 7.5 C-6.26125 7.335 -5.1475 7.17 -4 7 C-2.59145334 5.18298142 -2.59145334 5.18298142 -2 3 C-1.34 2.01 -0.68 1.02 0 0 Z " fill="#D9D8D9" transform="translate(153,243)"/>
<path d="M0 0 C-3.79024011 4.68206132 -10.37828661 6.43114975 -16 8 C-16.66 7.67 -17.32 7.34 -18 7 C-16.39805929 6.01719585 -14.79336258 5.03888283 -13.1875 4.0625 C-12.29417969 3.51722656 -11.40085937 2.97195312 -10.48046875 2.41015625 C-6.82712324 0.33321494 -4.13801055 -0.11183812 0 0 Z " fill="#8D88B3" transform="translate(112,199)"/>
<path d="M0 0 C0.66 0.33 1.32 0.66 2 1 C1.85769192 2.41702513 1.71099254 3.8336096 1.5625 5.25 C1.48128906 6.03890625 1.40007812 6.8278125 1.31640625 7.640625 C1 10 1 10 0.40234375 12.109375 C-0.2115801 14.20987429 -0.2115801 14.20987429 1 17 C0.34 17.33 -0.32 17.66 -1 18 C-1.66 18.99 -2.32 19.98 -3 21 C-3.05429959 19.25034642 -3.09292823 17.50020213 -3.125 15.75 C-3.15980469 14.28820312 -3.15980469 14.28820312 -3.1953125 12.796875 C-2.99520027 9.93126792 -2.3798964 8.46708751 -1 6 C-0.61709538 4.00889599 -0.27395385 2.00899487 0 0 Z " fill="#595A9F" transform="translate(70,159)"/>
<path d="M0 0 C5.20988728 1.63739315 8.61159416 4.55376114 11.3125 9.3125 C11.6528125 10.1478125 11.6528125 10.1478125 12 11 C11.01 11 10.02 11 9 11 C9 10.34 9 9.68 9 9 C8.34 9 7.68 9 7 9 C7 8.34 7 7.68 7 7 C6.401875 6.773125 5.80375 6.54625 5.1875 6.3125 C2.43648112 4.66188867 1.47515363 2.8027919 0 0 Z " fill="#A372A4" transform="translate(208,58)"/>
<path d="M0 0 C2 3 2 3 1.75 6.4375 C1.13121575 9.3767252 0.52580857 11.45698571 -1 14 C-1.66 14 -2.32 14 -3 14 C-3.33 14.66 -3.66 15.32 -4 16 C-3.47606294 10.13190493 -2.23891142 5.45126259 0 0 Z " fill="#7B7FAE" transform="translate(68,236)"/>
<path d="M0 0 C0.33 0.66 0.66 1.32 1 2 C2.65 1.67 4.3 1.34 6 1 C6 2.32 6 3.64 6 5 C5.401875 5.061875 4.80375 5.12375 4.1875 5.1875 C1.13562809 6.32105242 0.5029108 8.20887995 -1 11 C-1.33 11 -1.66 11 -2 11 C-1.125 3.375 -1.125 3.375 0 0 Z " fill="#6665AC" transform="translate(74,139)"/>
<path d="M0 0 C-2.97 2.64 -5.94 5.28 -9 8 C-10.32 7.01 -11.64 6.02 -13 5 C-11.40377344 3.96679519 -9.79770894 2.94877571 -8.1875 1.9375 C-7.29417969 1.36902344 -6.40085937 0.80054688 -5.48046875 0.21484375 C-3 -1 -3 -1 0 0 Z " fill="#A5A5A6" transform="translate(125,243)"/>
<path d="M0 0 C8.91 1.485 8.91 1.485 18 3 C18 3.66 18 4.32 18 5 C10.88658735 5.45164525 6.28453206 4.32797915 0 1 C0 0.67 0 0.34 0 0 Z " fill="#FAE5A1" transform="translate(248,122)"/>
<path d="M0 0 C1.98 0 3.96 0 6 0 C4.02 0.99 4.02 0.99 2 2 C1.34 1.34 0.68 0.68 0 0 Z M-4.3125 1.875 C-2.82169922 1.90207031 -2.82169922 1.90207031 -1.30078125 1.9296875 C-0.54152344 1.95289063 0.21773437 1.97609375 1 2 C1 2.99 1 3.98 1 5 C-1.93593133 5 -4.76556416 4.77500573 -7.6875 4.5 C-8.68136719 4.4071875 -9.67523438 4.314375 -10.69921875 4.21875 C-11.45847656 4.1465625 -12.21773437 4.074375 -13 4 C-9.57905758 1.71937172 -8.31812778 1.78074993 -4.3125 1.875 Z " fill="#754B91" transform="translate(175,58)"/>
<path d="M0 0 C0.33 0 0.66 0 1 0 C0.67949202 2.33512959 0.34403308 4.66822025 0 7 C-0.061875 7.9075 -0.12375 8.815 -0.1875 9.75 C-1 12 -1 12 -4.0625 13.8125 C-5.031875 14.204375 -6.00125 14.59625 -7 15 C-5.63408831 11.45756548 -4.09068516 8.07372071 -2.375 4.6875 C-1.70597656 3.36298828 -1.70597656 3.36298828 -1.0234375 2.01171875 C-0.68570312 1.34785156 -0.34796875 0.68398437 0 0 Z " fill="#8385B6" transform="translate(268,216)"/>
<path d="M0 0 C1.98 0.99 1.98 0.99 4 2 C4 2.66 4 3.32 4 4 C4.66 4.33 5.32 4.66 6 5 C5.74438677 7.3431213 5.40729228 9.67843403 5 12 C4.01 12.495 4.01 12.495 3 13 C0.96834048 8.66579301 0.47939368 4.71403788 0 0 Z " fill="#585A9C" transform="translate(90,273)"/>
<path d="M0 0 C0.66 0 1.32 0 2 0 C2 4.62 2 9.24 2 14 C0.68 14.33 -0.64 14.66 -2 15 C-2.33 15.99 -2.66 16.98 -3 18 C-3.99 17.67 -4.98 17.34 -6 17 C-2.25 12.125 -2.25 12.125 0 11 C0 7.37 0 3.74 0 0 Z " fill="#B1AAC2" transform="translate(149,256)"/>
<path d="M0 0 C0.33 0 0.66 0 1 0 C2.00926479 4.15626368 2.10239579 8.04365094 2.0625 12.3125 C2.05347656 13.56675781 2.04445312 14.82101562 2.03515625 16.11328125 C2.01775391 17.54220703 2.01775391 17.54220703 2 19 C-0.2249236 15.6626146 -0.39081861 13.99717615 -0.6875 10.0625 C-0.77386719 9.02222656 -0.86023438 7.98195312 -0.94921875 6.91015625 C-0.99415079 4.33520501 -0.77952037 2.432338 0 0 Z " fill="#8C74A2" transform="translate(201,248)"/>
<path d="M0 0 C-0.97453125 0.61488281 -0.97453125 0.61488281 -1.96875 1.2421875 C-3.22171875 2.05042969 -3.22171875 2.05042969 -4.5 2.875 C-5.3353125 3.40867187 -6.170625 3.94234375 -7.03125 4.4921875 C-7.6809375 4.98976563 -8.330625 5.48734375 -9 6 C-9 6.66 -9 7.32 -9 8 C-9.66 8 -10.32 8 -11 8 C-11.33 6.68 -11.66 5.36 -12 4 C-3.69811321 -1.8490566 -3.69811321 -1.8490566 0 0 Z " fill="#E9E9EA" transform="translate(129,270)"/>
<path d="M0 0 C0.99 0 1.98 0 3 0 C1.61811547 3.21043882 0.07578097 5.04936365 -2.625 7.25 C-3.57246094 8.03117188 -3.57246094 8.03117188 -4.5390625 8.828125 C-5.02117187 9.21484375 -5.50328125 9.6015625 -6 10 C-6 9.01 -6 8.02 -6 7 C-5.34 7 -4.68 7 -4 7 C-3.67 5.02 -3.34 3.04 -3 1 C-2.01 1.33 -1.02 1.66 0 2 C0 1.34 0 0.68 0 0 Z " fill="#8A7AAD" transform="translate(143,128)"/>
<path d="M0 0 C-3.3 2.31 -6.6 4.62 -10 7 C-11.32 6.34 -12.64 5.68 -14 5 C-13.195625 4.71125 -12.39125 4.4225 -11.5625 4.125 C-8.8673532 3.26737432 -8.8673532 3.26737432 -8 1 C-3.6 -1.2 -3.6 -1.2 0 0 Z " fill="#9F94BA" transform="translate(178,320)"/>
<path d="M0 0 C5.28 0.99 10.56 1.98 16 3 C16 3.33 16 3.66 16 4 C13.68756208 4.02685412 11.3750373 4.04632841 9.0625 4.0625 C7.77472656 4.07410156 6.48695312 4.08570313 5.16015625 4.09765625 C2 4 2 4 1 3 C-0.32594105 2.63837971 -1.65938457 2.30271961 -3 2 C-2.01 2 -1.02 2 0 2 C0 1.34 0 0.68 0 0 Z " fill="#71689E" transform="translate(116,283)"/>
<path d="M0 0 C3.5 1.25 3.5 1.25 5.5 4.25 C2.2 3.92 -1.1 3.59 -4.5 3.25 C-4.83 2.26 -5.16 1.27 -5.5 0.25 C-3.5 -0.75 -3.5 -0.75 0 0 Z " fill="#928FA1" transform="translate(116.5,279.75)"/>
<path d="M0 0 C0.33 0 0.66 0 1 0 C1.55353075 14.78132118 1.55353075 14.78132118 -2 21 C-2.33 21 -2.66 21 -3 21 C-3.25 15.375 -3.25 15.375 -1 12 C-0.54084493 9.03157342 -0.54084493 9.03157342 -0.375 5.8125 C-0.30023438 4.72582031 -0.22546875 3.63914062 -0.1484375 2.51953125 C-0.09945312 1.68808594 -0.05046875 0.85664062 0 0 Z " fill="#B081B2" transform="translate(223,76)"/>
<path d="M0 0 C0.66 0.33 1.32 0.66 2 1 C1.67 1.66 1.34 2.32 1 3 C0.34 3 -0.32 3 -1 3 C-1.33 3.66 -1.66 4.32 -2 5 C-2.99 5.33 -3.98 5.66 -5 6 C-5.33 6.66 -5.66 7.32 -6 8 C-7.65 8 -9.3 8 -11 8 C-7.71644638 4.32241995 -4.37221763 2.18610882 0 0 Z " fill="#9383B2" transform="translate(134,71)"/>
<path d="M0 0 C1 3 1 3 -0.25 5.625 C-2 8 -2 8 -5 9 C-5.33 9.99 -5.66 10.98 -6 12 C-6.71484375 10.265625 -6.71484375 10.265625 -7 8 C-5.56640625 5.859375 -5.56640625 5.859375 -3.5625 3.75 C-2.57443359 2.69039062 -2.57443359 2.69039062 -1.56640625 1.609375 C-1.04949219 1.07828125 -0.53257812 0.5471875 0 0 Z " fill="#7F83B0" transform="translate(260,231)"/>
<path d="M0 0 C0.93065133 2.60582371 1.14917407 3.64198224 0.0625 6.25 C-0.4634375 7.11625 -0.4634375 7.11625 -1 8 C-0.34 8.33 0.32 8.66 1 9 C-0.98 9 -2.96 9 -5 9 C-4.42647107 5.12867972 -2.51295648 2.91827204 0 0 Z " fill="#9899BD" transform="translate(201,310)"/>
<path d="M0 0 C-1.31224548 3.93673644 -2.91910327 6.22719294 -6 9 C-6 8.01 -6 7.02 -6 6 C-6.66 5.67 -7.32 5.34 -8 5 C-2.25 0 -2.25 0 0 0 Z " fill="#978AB8" transform="translate(195,298)"/>
<path d="M0 0 C0 0.66 0 1.32 0 2 C-1.98 2.33 -3.96 2.66 -6 3 C-6 3.66 -6 4.32 -6 5 C-8.31 4.67 -10.62 4.34 -13 4 C-8.68630028 1.12420019 -5.19265239 0 0 0 Z " fill="#8184B0" transform="translate(230,258)"/>
<path d="M0 0 C-1.75 3.875 -1.75 3.875 -4 5 C-4.33 4.34 -4.66 3.68 -5 3 C-7.02463255 2.34786708 -7.02463255 2.34786708 -9 2 C-9 1.34 -9 0.68 -9 0 C-5.67465243 -1.10844919 -3.37817425 -0.84454356 0 0 Z " fill="#888694" transform="translate(115,250)"/>
<path d="M0 0 C2.47524576 2.90572328 3.69670231 5.15822926 4 9 C2 11 2 11 -1 12 C-0.34 9.36 0.32 6.72 1 4 C0.34 4 -0.32 4 -1 4 C-0.67 2.68 -0.34 1.36 0 0 Z " fill="#6E73A8" transform="translate(315,130)"/>
<path d="M0 0 C0.99 0 1.98 0 3 0 C3.33 3.3 3.66 6.6 4 10 C3.01 10.33 2.02 10.66 1 11 C0.34 9.35 -0.32 7.7 -1 6 C-0.01 5.67 0.98 5.34 2 5 C2 4.34 2 3.68 2 3 C1.01 2.67 0.02 2.34 -1 2 C-0.67 1.34 -0.34 0.68 0 0 Z " fill="#913C91" transform="translate(217,69)"/>
<path d="M0 0 C0.66 0 1.32 0 2 0 C0.68206814 5.66710699 -1.48709197 7.66437233 -6 11 C-5.5037037 6.40925926 -5.5037037 6.40925926 -3 4.375 C-2.01 3.694375 -2.01 3.694375 -1 3 C-0.67 2.01 -0.34 1.02 0 0 Z " fill="#968CB3" transform="translate(148,271)"/>
<path d="M0 0 C-0.5590888 3.24271506 -1.4132178 4.93057424 -4 7 C-4.66 7 -5.32 7 -6 7 C-6 5.02 -6 3.04 -6 1 C-3.92446352 0.4465236 -2.15634036 0 0 0 Z " fill="#F6F5F8" transform="translate(110,252)"/>
<path d="M0 0 C0.66 0.99 1.32 1.98 2 3 C1.67 3.99 1.34 4.98 1 6 C-0.32 6 -1.64 6 -3 6 C-3 6.66 -3 7.32 -3 8 C-2.34 8.33 -1.68 8.66 -1 9 C-2.32 9 -3.64 9 -5 9 C-3.90931332 5.22454612 -3.0916909 2.52956528 0 0 Z " fill="#DCD9EE" transform="translate(109,244)"/>
<path d="M0 0 C-1.50223584 4.20626034 -4.28550034 5.73900021 -8 8 C-7.6641593 4.89347355 -7.40950721 3.39585697 -5.125 1.1875 C-3 0 -3 0 0 0 Z " fill="#7776AA" transform="translate(84,198)"/>
<path d="M0 0 C-0.33 0.66 -0.66 1.32 -1 2 C-3.94140625 2.6328125 -3.94140625 2.6328125 -7.5625 3.125 C-8.76003906 3.29257813 -9.95757812 3.46015625 -11.19140625 3.6328125 C-12.11824219 3.75398438 -13.04507813 3.87515625 -14 4 C-13.67 3.01 -13.34 2.02 -13 1 C-8.59085217 -0.10228696 -4.51617599 -0.07654536 0 0 Z " fill="#9A7EAB" transform="translate(189,109)"/>
<path d="M0 0 C5.28 0 10.56 0 16 0 C16 0.33 16 0.66 16 1 C14.39658445 1.33692785 12.79223445 1.66941093 11.1875 2 C10.29417969 2.185625 9.40085938 2.37125 8.48046875 2.5625 C6 3 6 3 3 3 C3 2.34 3 1.68 3 1 C2.01 0.67 1.02 0.34 0 0 Z " fill="#905D9B" transform="translate(189,56)"/>
<path d="M0 0 C0.99 0.99 1.98 1.98 3 3 C1.02 5.31 -0.96 7.62 -3 10 C-3.66 9.34 -4.32 8.68 -5 8 C-4.54625 7.608125 -4.0925 7.21625 -3.625 6.8125 C-1.72357081 4.69167513 -0.93795972 2.66957765 0 0 Z " fill="#B6B5B9" transform="translate(138,246)"/>
<path d="M0 0 C1.65 0.33 3.3 0.66 5 1 C4.67 2.98 4.34 4.96 4 7 C1.525 6.01 1.525 6.01 -1 5 C-0.67 3.35 -0.34 1.7 0 0 Z " fill="#5A59A5" transform="translate(81,192)"/>
<path d="M0 0 C0.66 0 1.32 0 2 0 C2.144375 0.598125 2.28875 1.19625 2.4375 1.8125 C2.8872439 3.56150404 3.42892341 5.28677023 4 7 C2.02 7.99 0.04 8.98 -2 10 C-2 9.01 -2 8.02 -2 7 C-1.34 7 -0.68 7 0 7 C-0.185625 6.401875 -0.37125 5.80375 -0.5625 5.1875 C-1 3 -1 3 0 0 Z " fill="#8264A6" transform="translate(158,112)"/>
<path d="M0 0 C1.22589844 0.15275391 1.22589844 0.15275391 2.4765625 0.30859375 C3.41628906 0.43427734 3.41628906 0.43427734 4.375 0.5625 C4.375 1.5525 4.375 2.5425 4.375 3.5625 C3.116875 3.43875 1.85875 3.315 0.5625 3.1875 C-0.49904297 3.08308594 -0.49904297 3.08308594 -1.58203125 2.9765625 C-3.625 2.5625 -3.625 2.5625 -6.625 0.5625 C-4.10446405 -0.69776798 -2.7707902 -0.35624445 0 0 Z " fill="#7D7BAC" transform="translate(115.625,330.4375)"/>
<path d="M0 0 C0.99 0 1.98 0 3 0 C1.4169423 4.2742558 -1.50568404 6.26531794 -5 9 C-5 7.68 -5 6.36 -5 5 C-4.01 5 -3.02 5 -2 5 C-1.7834375 4.0409375 -1.7834375 4.0409375 -1.5625 3.0625 C-1 1 -1 1 0 0 Z " fill="#998EB4" transform="translate(186,307)"/>
<path d="M0 0 C1.32 0.66 2.64 1.32 4 2 C0.63576723 4.96052484 -2.69159287 5.92289822 -7 7 C-4.66666667 4.66666667 -2.33333333 2.33333333 0 0 Z " fill="#EAEAEA" transform="translate(128,261)"/>
<path d="M0 0 C4.95 0.33 9.9 0.66 15 1 C15 1.33 15 1.66 15 2 C14.21753906 2.04898438 13.43507813 2.09796875 12.62890625 2.1484375 C11.61699219 2.22320312 10.60507812 2.29796875 9.5625 2.375 C8.55316406 2.44460937 7.54382813 2.51421875 6.50390625 2.5859375 C5.26447266 2.79089844 5.26447266 2.79089844 4 3 C3.67 3.66 3.34 4.32 3 5 C1.5 3.625 1.5 3.625 0 2 C0 1.34 0 0.68 0 0 Z " fill="#AFB3CC" transform="translate(253,133)"/>
<path d="M0 0 C-1.04874998 2.62187494 -1.64931313 3.79371361 -4.125 5.25 C-4.74375 5.4975 -5.3625 5.745 -6 6 C-6 5.34 -6 4.68 -6 4 C-7.32 3.67 -8.64 3.34 -10 3 C-3.375 0 -3.375 0 0 0 Z " fill="#A3A2A5" transform="translate(122,254)"/>
<path d="M0 0 C2.18879485 4.37758969 2.08927916 5.4448326 1 10 C0.67 10.66 0.34 11.32 0 12 C-0.66 12 -1.32 12 -2 12 C-1.34 8.04 -0.68 4.08 0 0 Z " fill="#7D82B0" transform="translate(213,279)"/>
<path d="M0 0 C0.66 0.33 1.32 0.66 2 1 C-2.35114504 5.71374046 -2.35114504 5.71374046 -5.125 6.9375 C-7 7 -7 7 -10 5 C-9.16855469 4.70996094 -9.16855469 4.70996094 -8.3203125 4.4140625 C-7.59585938 4.15367187 -6.87140625 3.89328125 -6.125 3.625 C-5.04605469 3.24214844 -5.04605469 3.24214844 -3.9453125 2.8515625 C-1.81842006 2.06122217 -1.81842006 2.06122217 0 0 Z " fill="#B1AFB6" transform="translate(140,276)"/>
<path d="M0 0 C0.99 0.33 1.98 0.66 3 1 C2.67 1.66 2.34 2.32 2 3 C3.98 3 5.96 3 8 3 C8 3.33 8 3.66 8 4 C4.37 4.33 0.74 4.66 -3 5 C-2.01 3.35 -1.02 1.7 0 0 Z " fill="#ABABAC" transform="translate(130,243)"/>
<path d="M0 0 C-4.74963401 3.68096635 -8.00708997 4.58669586 -14 5 C-13.38125 4.71125 -12.7625 4.4225 -12.125 4.125 C-9.86674235 3.06279958 -9.86674235 3.06279958 -8 1 C-2.41860465 -1.20930233 -2.41860465 -1.20930233 0 0 Z " fill="#E9B130" transform="translate(276,120)"/>
<path d="M0 0 C0.99 0.33 1.98 0.66 3 1 C-1.625 5.875 -1.625 5.875 -5 7 C-5.33 6.01 -5.66 5.02 -6 4 C-4.35 3.67 -2.7 3.34 -1 3 C-0.67 2.01 -0.34 1.02 0 0 Z " fill="#A477A8" transform="translate(214,100)"/>
<path d="M0 0 C0.99 0.33 1.98 0.66 3 1 C3 1.99 3 2.98 3 4 C3.66 4.33 4.32 4.66 5 5 C4.67 6.65 4.34 8.3 4 10 C1.16625119 6.79663178 0.4794463 4.21912747 0 0 Z " fill="#8289B2" transform="translate(66,286)"/>
<path d="M0 0 C0.763125 0.20625 1.52625 0.4125 2.3125 0.625 C0.13825883 3.12537734 -1.41795798 4.06128586 -4.6875 4.625 C-5.0175 3.635 -5.3475 2.645 -5.6875 1.625 C-2.6875 -0.375 -2.6875 -0.375 0 0 Z " fill="#D7D6DB" transform="translate(128.6875,273.375)"/>
<path d="M0 0 C1.50433594 0.01353516 1.50433594 0.01353516 3.0390625 0.02734375 C3.80992187 0.03894531 4.58078125 0.05054688 5.375 0.0625 C5.375 0.3925 5.375 0.7225 5.375 1.0625 C2.405 1.0625 -0.565 1.0625 -3.625 1.0625 C-3.625 2.3825 -3.625 3.7025 -3.625 5.0625 C-4.285 5.0625 -4.945 5.0625 -5.625 5.0625 C-5.625 4.4025 -5.625 3.7425 -5.625 3.0625 C-6.285 3.0625 -6.945 3.0625 -7.625 3.0625 C-7.625 2.4025 -7.625 1.7425 -7.625 1.0625 C-4.98041621 -0.25979189 -2.94738699 -0.03427194 0 0 Z " fill="#565B94" transform="translate(264.625,134.9375)"/>
<path d="M0 0 C1.98 0.99 1.98 0.99 4 2 C4 3.65 4 5.3 4 7 C3.67 6.34 3.34 5.68 3 5 C2.34 5 1.68 5 1 5 C0.67 6.32 0.34 7.64 0 9 C0 6.03 0 3.06 0 0 Z " fill="#656A9F" transform="translate(294,100)"/>
<path d="M0 0 C0.33 0 0.66 0 1 0 C1.08131463 1.43655854 1.13933559 2.8744483 1.1875 4.3125 C1.23970703 5.51326172 1.23970703 5.51326172 1.29296875 6.73828125 C0.93801608 9.47851584 0.10633718 10.29171079 -2 12 C-2.17835515 7.45194365 -1.99785435 4.1205746 0 0 Z " fill="#99579C" transform="translate(219,89)"/>
<path d="M0 0 C0.99 0 1.98 0 3 0 C3.33 2.31 3.66 4.62 4 7 C2.68 6.67 1.36 6.34 0 6 C0 4.02 0 2.04 0 0 Z " fill="#636AA0" transform="translate(65,280)"/>
<path d="M0 0 C0.66 0.33 1.32 0.66 2 1 C-0.80804268 3.96404505 -3.18315774 6.44499019 -7 8 C-5.50902342 4.2047869 -3.24299151 2.38957269 0 0 Z " fill="#ADAACD" transform="translate(102,269)"/>
<path d="M0 0 C0.66 0 1.32 0 2 0 C0.6062718 4.43458973 -1.60582235 6.87378374 -5 10 C-4.67 8.35 -4.34 6.7 -4 5 C-3.34 5 -2.68 5 -2 5 C-2 4.34 -2 3.68 -2 3 C-1.34 3 -0.68 3 0 3 C0 2.01 0 1.02 0 0 Z " fill="#8286B1" transform="translate(302,262)"/>
<path d="M0 0 C0.66 0.33 1.32 0.66 2 1 C-0.64 3.64 -3.28 6.28 -6 9 C-6.66 8.34 -7.32 7.68 -8 7 C-5.36 4.69 -2.72 2.38 0 0 Z " fill="#AEAEAD" transform="translate(132,255)"/>
<path d="M0 0 C3 3 3 3 3.1875 6.6875 C3.125625 7.780625 3.06375 8.87375 3 10 C2.01 10 1.02 10 0 10 C0 6.7 0 3.4 0 0 Z " fill="#595B97" transform="translate(67,194)"/>
<path d="M0 0 C0.66 0.99 1.32 1.98 2 3 C0.625 5.5 0.625 5.5 -1 8 C-1.66 8 -2.32 8 -3 8 C-3 8.99 -3 9.98 -3 11 C-3.66 11 -4.32 11 -5 11 C-3.55049545 7.2089881 -1.84827434 3.6125362 0 0 Z " fill="#7D82AD" transform="translate(207,299)"/>
<path d="M0 0 C2.95183101 2.95183101 3.08663988 5.95511947 4 10 C3.01 10.495 3.01 10.495 2 11 C0.35365714 8.03658286 -0.55681086 5.36823744 -1 2 C-0.67 1.34 -0.34 0.68 0 0 Z " fill="#997FAE" transform="translate(196,234)"/>
<path d="M0 0 C0.99 0.33 1.98 0.66 3 1 C2.67 2.32 2.34 3.64 2 5 C1.01 4.67 0.02 4.34 -1 4 C-1.33 4.99 -1.66 5.98 -2 7 C-2.33 5.68 -2.66 4.36 -3 3 C-2.01 2.67 -1.02 2.34 0 2 C0 1.34 0 0.68 0 0 Z " fill="#5B579F" transform="translate(84,123)"/>
<path d="M0 0 C0.66 0.33 1.32 0.66 2 1 C1.54625 1.4125 1.0925 1.825 0.625 2.25 C-1.05950374 4.06408095 -1.99265971 5.75285627 -3 8 C-4.32 7.67 -5.64 7.34 -7 7 C-4.69 4.69 -2.38 2.38 0 0 Z " fill="#8A82B1" transform="translate(112,86)"/>
<path d="M0 0 C4.455 0.99 4.455 0.99 9 2 C9 2.66 9 3.32 9 4 C7.68 4 6.36 4 5 4 C4.67 4.66 4.34 5.32 4 6 C0 1.125 0 1.125 0 0 Z " fill="#7478B0" transform="translate(76,306)"/>
<path d="M0 0 C0.99 0 1.98 0 3 0 C2.67 1.98 2.34 3.96 2 6 C1.01 6.33 0.02 6.66 -1 7 C-0.67 4.69 -0.34 2.38 0 0 Z " fill="#6A6FA4" transform="translate(210,291)"/>
<path d="M0 0 C-1.24546405 3.73639216 -2.63404953 4.18756513 -6 6 C-6 4.68 -6 3.36 -6 2 C-3 0 -3 0 0 0 Z " fill="#767BA9" transform="translate(288,281)"/>
<path d="M0 0 C0.66 0.33 1.32 0.66 2 1 C2 1.66 2 2.32 2 3 C-0.90548882 5.04169485 -2.40142046 6 -6 6 C-6 5.34 -6 4.68 -6 4 C-4.03852126 2.61061923 -2.03833424 1.2739589 0 0 Z " fill="#83808F" transform="translate(107,273)"/>
<path d="M0 0 C0.33 0.99 0.66 1.98 1 3 C-1.35438733 4.42944945 -2.48032433 5.08661261 -5.25 4.625 C-5.8275 4.41875 -6.405 4.2125 -7 4 C-2.25 0 -2.25 0 0 0 Z " fill="#DEDEDE" transform="translate(132,265)"/>
<path d="M0 0 C-1.70625501 2.78388975 -2.47626739 3.85384206 -5.6875 4.75 C-6.8321875 4.87375 -6.8321875 4.87375 -8 5 C-7.75 3.125 -7.75 3.125 -7 1 C-4.09342573 -1.03460199 -3.47133392 -1.15711131 0 0 Z " fill="#D4CBE8" transform="translate(149,234)"/>
<path d="M0 0 C0 0.66 0 1.32 0 2 C-3.3 2.66 -6.6 3.32 -10 4 C-10 3.34 -10 2.68 -10 2 C-6.38026598 0.68373308 -3.90432869 0 0 0 Z " fill="#7C769F" transform="translate(116,283)"/>
<path d="M0 0 C2.1519437 3.22791555 2.20086443 4.28400809 2 8 C1.01 8.33 0.02 8.66 -1 9 C-0.67 6.03 -0.34 3.06 0 0 Z " fill="#6F66A4" transform="translate(102,261)"/>
<path d="M0 0 C0.33 0.66 0.66 1.32 1 2 C-1.31 4.64 -3.62 7.28 -6 10 C-6 6.41087588 -5.33563446 5.89142971 -3 3.3125 C-2.443125 2.68988281 -1.88625 2.06726563 -1.3125 1.42578125 C-0.879375 0.95527344 -0.44625 0.48476563 0 0 Z " fill="#FDFDFD" transform="translate(145,264)"/>
<path d="M0 0 C0.66 0.66 1.32 1.32 2 2 C-0.31 3.65 -2.62 5.3 -5 7 C-3.92643531 2.70574125 -3.4915227 2.25259529 0 0 Z " fill="#746E90" transform="translate(113,259)"/>
<path d="M0 0 C0.99 0.66 1.98 1.32 3 2 C2.67 3.65 2.34 5.3 2 7 C0.68 7 -0.64 7 -2 7 C-1.34 4.69 -0.68 2.38 0 0 Z " fill="#C6C2D5" transform="translate(156,236)"/>
<path d="M0 0 C2.31 0 4.62 0 7 0 C7 1.98 7 3.96 7 6 C6.01 6.495 6.01 6.495 5 7 C4.9175 6.21625 4.835 5.4325 4.75 4.625 C4.27193661 1.85250896 4.27193661 1.85250896 1.9375 0.6875 C1.298125 0.460625 0.65875 0.23375 0 0 Z " fill="#F9F4FB" transform="translate(149,234)"/>
<path d="M0 0 C0.6875 1.6875 0.6875 1.6875 1 4 C-0.3125 6.75 -0.3125 6.75 -2 9 C-2.66 9 -3.32 9 -4 9 C-2.94124926 5.59687262 -1.99097846 2.98646769 0 0 Z " fill="#8689B4" transform="translate(73,227)"/>
<path d="M0 0 C2 2 2 2 2.125 4.625 C2.08375 5.40875 2.0425 6.1925 2 7 C0.02 7.99 0.02 7.99 -2 9 C-1.34 6.03 -0.68 3.06 0 0 Z " fill="#7C80B1" transform="translate(271,207)"/>
<path d="M0 0 C2.875 -0.125 2.875 -0.125 6 0 C6.66 0.66 7.32 1.32 8 2 C5.03 2.66 2.06 3.32 -1 4 C-0.67 2.68 -0.34 1.36 0 0 Z " fill="#807BAE" transform="translate(106,184)"/>
<path d="M0 0 C0.99 0.33 1.98 0.66 3 1 C2.67 2.32 2.34 3.64 2 5 C0.68 5.33 -0.64 5.66 -2 6 C-1.34 4.02 -0.68 2.04 0 0 Z " fill="#7869A0" transform="translate(131,140)"/>
<path d="M0 0 C0.33 1.32 0.66 2.64 1 4 C-0.32 4.99 -1.64 5.98 -3 7 C-3.33 5.35 -3.66 3.7 -4 2 C-2.68 1.34 -1.36 0.68 0 0 Z " fill="#F0AF1D" transform="translate(280,111)"/>
<path d="M0 0 C0 1.66666667 0 3.33333333 0 5 C-1.32 5 -2.64 5 -4 5 C-4 4.34 -4 3.68 -4 3 C-4.99 2.67 -5.98 2.34 -7 2 C-4.69 1.34 -2.38 0.68 0 0 Z " fill="#908D9B" transform="translate(103,282)"/>
<path d="M0 0 C2.97 0.495 2.97 0.495 6 1 C6.33 2.32 6.66 3.64 7 5 C6.01 5.495 6.01 5.495 5 6 C3.35 4.02 1.7 2.04 0 0 Z " fill="#8C87A3" transform="translate(138,240)"/>
<path d="M0 0 C1.21816406 0.03480469 1.21816406 0.03480469 2.4609375 0.0703125 C3.68683594 0.09738281 3.68683594 0.09738281 4.9375 0.125 C5.87722656 0.15980469 5.87722656 0.15980469 6.8359375 0.1953125 C6.8359375 0.5253125 6.8359375 0.8553125 6.8359375 1.1953125 C-0.59263393 3.62388393 -0.59263393 3.62388393 -4.1640625 2.1953125 C-2.1640625 0.1953125 -2.1640625 0.1953125 0 0 Z " fill="#908AA4" transform="translate(122.1640625,237.8046875)"/>
<path d="M0 0 C-1.97420135 2.52259061 -2.96745642 2.9929808 -6.1875 3.6875 C-7.5796875 3.8421875 -7.5796875 3.8421875 -9 4 C-8.67 3.01 -8.34 2.02 -8 1 C-5.07175348 0.02391783 -3.04386724 -0.08226668 0 0 Z " fill="#7A74A6" transform="translate(112,199)"/>
<path d="M0 0 C0.33 0 0.66 0 1 0 C1.33 3.3 1.66 6.6 2 10 C1.01 10.495 1.01 10.495 0 11 C-1.28571429 3.57142857 -1.28571429 3.57142857 0 0 Z " fill="#8B90B9" transform="translate(325,158)"/>
<path d="M0 0 C3.3 0 6.6 0 10 0 C9.01 1.485 9.01 1.485 8 3 C8 2.34 8 1.68 8 1 C5.69 1.66 3.38 2.32 1 3 C0.67 2.01 0.34 1.02 0 0 Z " fill="#79498D" transform="translate(182,57)"/>
<path d="M0 0 C-2.62198774 2.15377564 -4.64404172 3.40072174 -8 4 C-8 3.34 -8 2.68 -8 2 C-3.61016949 -1.20338983 -3.61016949 -1.20338983 0 0 Z " fill="#D0D0D0" transform="translate(113,279)"/>
<path d="M0 0 C-0.66 1.32 -1.32 2.64 -2 4 C-4.97 3.505 -4.97 3.505 -8 3 C-5.53387212 -0.1151089 -3.89156016 -0.31553191 0 0 Z " fill="#EFEFF1" transform="translate(117,275)"/>
<path d="M0 0 C1.32 1.32 2.64 2.64 4 4 C3.67 4.66 3.34 5.32 3 6 C1.68 5.67 0.36 5.34 -1 5 C-0.67 3.35 -0.34 1.7 0 0 Z " fill="#8E72A5" transform="translate(189,223)"/>
<path d="M0 0 C0.66 0.66 1.32 1.32 2 2 C1.625 4.125 1.625 4.125 1 6 C-0.32 5.67 -1.64 5.34 -3 5 C-2.01 3.35 -1.02 1.7 0 0 Z " fill="#5858A2" transform="translate(75,200)"/>
<path d="M0 0 C0.66 0 1.32 0 2 0 C1.74438677 2.3431213 1.40729228 4.67843403 1 7 C0.01 7.495 0.01 7.495 -1 8 C-0.67 5.36 -0.34 2.72 0 0 Z " fill="#7473A9" transform="translate(73,142)"/>
<path d="M0 0 C0.33 0.66 0.66 1.32 1 2 C0.34 2 -0.32 2 -1 2 C-1.66 3.65 -2.32 5.3 -3 7 C-4.32 6.34 -5.64 5.68 -7 5 C-6.01 5 -5.02 5 -4 5 C-3.71125 4.360625 -3.4225 3.72125 -3.125 3.0625 C-2 1 -2 1 0 0 Z " fill="#645197" transform="translate(125,78)"/>
</svg>
