<svg width="55" height="55" viewBox="0 0 55 55" fill="none" xmlns="http://www.w3.org/2000/svg">
<path d="M22.9481 3.40523C25.9858 1.65138 29.7284 1.65138 32.7662 3.40523L46.3307 11.2367C49.3685 12.9906 51.2398 16.2318 51.2398 19.7395V35.4024C51.2398 38.9102 49.3685 42.1514 46.3307 43.9052L32.7662 51.7367C29.7284 53.4906 25.9858 53.4906 22.9481 51.7367L9.38354 43.9052C6.34579 42.1514 4.47446 38.9102 4.47446 35.4024V19.7395C4.47446 16.2318 6.34579 12.9906 9.38354 11.2367L22.9481 3.40523Z" fill="#1B1B1B"/>
<path d="M38.6097 24.3573V38.9391H31.445V36.6253C29.9641 38.4969 27.9408 39.4327 25.3753 39.4327C22.8098 39.4327 20.8179 38.5998 19.3995 36.9339C17.9812 35.2679 17.2721 32.9027 17.2721 29.8382V17.3438H24.6558V29.6223C24.6558 30.9386 24.9374 31.9258 25.5004 32.5839C26.0637 33.2215 26.8459 33.5402 27.847 33.5402C28.8273 33.5402 29.6304 33.1907 30.2561 32.4914C30.9027 31.7715 31.226 30.7328 31.226 29.3754V24.3573H38.6097Z" fill="white"/>
<path d="M31.2071 17.3438H38.5851V22.8595H31.2071V17.3438Z" fill="#CCFF00"/>
</svg>
